<?xml version="1.0" encoding="utf-8"?>
<!-- Generator: Adobe Illustrator 17.1.0, SVG Export Plug-In . SVG Version: 6.00 Build 0)  -->
<!DOCTYPE svg PUBLIC "-//W3C//DTD SVG 1.1//EN" "http://www.w3.org/Graphics/SVG/1.1/DTD/svg11.dtd">
<svg version="1.1" id="Layer_1" xmlns="http://www.w3.org/2000/svg" xmlns:xlink="http://www.w3.org/1999/xlink" x="0px" y="0px"
	 viewBox="0 0 1964.2 529.7" enable-background="new 0 0 1964.2 529.7" xml:space="preserve">
<g>
	<g>
		<path d="M716.4,90.5v160.3h-19.9v-74.3H593.2v74.3h-19.9V90.5h19.9v70.7h103.3V90.5H716.4z"/>
		<path d="M766,138.5v122.6v4.8c0,18.6-8.5,27.8-25.5,27.8c-2.5,0-5.4-0.3-8.7-0.8v-11.6c1-0.2,1.7-0.2,2.1-0.2l2.3-0.1l7.5-2.2
			c2.8-2.1,4.1-8,4.1-17.6V138.5H766z M766,90.5V109h-18.1V90.5H766z"/>
		<path d="M790.1,254.7v-15.1l8.9-7.7c-2.8-7.7-4.3-20-4.3-37c0-24.3,3.4-40,10.3-47.1c6.9-7.2,21.9-10.7,45.1-10.7
			c22.7,0,37.5,3.9,44.3,11.7l14.5-12.7v15l-8.8,7.8c2.8,7.4,4.1,18.8,4.1,34c0,24.4-3.3,40.5-10,48.1c-6.6,7.7-20.6,11.5-41.8,11.5
			c-24.1,0-39.8-3.6-47.2-10.9L790.1,254.7z M881.2,160.1c-3.7-6.4-13.4-9.6-29-9.6c-17.7,0-28.5,2.3-32.5,6.9c-4,4.6-6,17.1-6,37.5
			c0,8.8,0.3,16.5,1,23.1L881.2,160.1z M818.4,229.9c3.7,6,13.1,8.9,28.1,8.9c17.9,0,28.8-2.4,32.7-7c4-4.7,6-17.7,6-38.9
			c0-6.7-0.3-13.5-0.9-20.4L818.4,229.9z"/>
		<path d="M934.4,138.5h18.1l-1.8,12.9l0.4,0.4c7.2-10.6,19-15.9,35.5-15.9c22.8,0,34.2,10.6,34.2,31.9l-0.1,7.7h-17.9l0.4-2.8
			c0.3-3,0.4-5,0.4-6c0-11.5-6.9-17.3-20.7-17.3c-20.2,0-30.3,11.3-30.3,33.9v67.3h-18.1V138.5z"/>
		<path d="M1040.1,138.5h18.1l-1.8,12.9l0.4,0.4c7.2-10.6,19-15.9,35.5-15.9c22.8,0,34.2,10.6,34.2,31.9l-0.1,7.7h-17.9l0.4-2.8
			c0.3-3,0.4-5,0.4-6c0-11.5-6.9-17.3-20.7-17.3c-20.2,0-30.3,11.3-30.3,33.9v67.3h-18.1V138.5z"/>
		<path d="M1162,90.5V109h-18.1V90.5H1162z M1162,138.5v112.3h-18.1V138.5H1162z"/>
		<path d="M1193.7,138.5h17.5l-0.5,15.3l0.5,0.4c5.5-11.5,19.2-17.3,41.2-17.3c17.7,0,29.7,2.8,35.9,8.5c6.3,5.6,9.4,16.4,9.4,32.4
			v73h-18.1v-71.6v-4.2c0-9.6-2-16.1-6.1-19.4c-4.1-3.3-11.9-5-23.4-5c-25.5,0-38.2,10.9-38.2,32.8v67.5h-18.1V138.5z"/>
		<path d="M1422.4,138.5v119.5c0,16.3-3.9,27.5-11.7,33.6c-7.8,6.1-22,9.2-42.7,9.2c-18.5,0-31.1-2.6-37.8-7.8
			c-6.7-5.2-10.1-14.8-10.1-29h17.5c0,9.6,2,15.9,5.9,18.8c3.9,2.9,12.5,4.3,25.8,4.3c13.8,0,23.1-1.9,27.8-5.6
			c4.7-3.8,7.1-11.1,7.1-22.1v-22.5l-0.4-0.1c-4.7,10.4-18.1,15.6-40.4,15.6c-18.3,0-30.9-4.1-37.8-12.3
			c-6.9-8.2-10.4-23.1-10.4-44.8c0-22.5,3.5-37.8,10.5-46.1c7-8.3,20.1-12.4,39.2-12.4c20.3,0,33.5,5.6,39.7,16.9l0.4-0.1l-0.9-15.1
			H1422.4z M1368.4,150.5c-14.2,0-23.5,2.7-27.7,8.2c-4.2,5.4-6.3,17.4-6.3,35.8c0,18.6,2.1,30.6,6.3,36.1
			c4.2,5.5,13.5,8.3,27.7,8.3c14.4,0,23.9-3,28.5-9.1c4.6-6.1,6.9-18.7,6.9-37.9c0-16.9-2.3-28-6.9-33.3
			C1392.3,153.2,1382.9,150.5,1368.4,150.5z"/>
		<path d="M573.3,480.5V320.2h78.2c21.7,0,35.8,2.7,42.5,8.1c6.7,5.4,10,16.8,10,34.3c0,17.8-7.6,29-22.7,33.7v0.4
			c18.7,4.1,28.1,16.6,28.1,37.7c0,17-3.7,28.9-11.1,35.8c-7.4,6.9-20.2,10.3-38.5,10.3H573.3z M593.2,390.6h52.4
			c16.7,0,27.4-1.8,32.2-5.4c4.8-3.6,7.2-11.6,7.2-24.1c0-10.8-2.1-17.8-6.3-21c-4.2-3.2-13.4-4.8-27.6-4.8h-57.9V390.6z
			 M593.2,465.2h42.3l18-0.1c15.2,0,25.1-1.8,29.8-5.3c4.7-3.6,7.1-11.1,7.1-22.6c0-14.3-2.4-23.1-7.1-26.4
			c-4.7-3.3-17.7-4.9-38.7-4.9h-51.4V465.2z"/>
		<path d="M747.2,320.2v18.4h-18.1v-18.4H747.2z M747.2,368.2v112.3h-18.1V368.2H747.2z"/>
		<path d="M772,480.5V320.2h18.1v62.3l0.4,0.4c4.1-10.9,17.7-16.3,40.6-16.3c18.1,0,30.6,4.3,37.5,12.8c6.9,8.5,10.4,24,10.4,46.4
			c0,21.2-3.6,35.9-10.9,44.1c-7.3,8.2-20.5,12.3-39.5,12.3c-19.4,0-32.4-5.2-38.8-15.6l-0.5,0.1l0.9,13.9H772z M826.5,380.2
			c-14.2,0-23.8,2.8-28.6,8.3c-4.8,5.5-7.3,16.5-7.3,32.9c0,20.3,2.2,33.2,6.5,38.7c4.4,5.6,14.4,8.3,30.1,8.3
			c13.3,0,22.1-2.8,26.3-8.5c4.3-5.7,6.4-17.3,6.4-34.9c0-18.6-2.1-30.7-6.3-36.3C849.4,383,840.4,380.2,826.5,380.2z"/>
		<path d="M916.4,320.2v160.3h-18.1V320.2H916.4z"/>
		<path d="M966.4,320.2v18.4h-18.1v-18.4H966.4z M966.4,368.2v112.3h-18.1V368.2H966.4z"/>
		<path d="M1042.3,366.6c22.9,0,37.7,3.6,44.5,10.8c6.8,7.2,10.2,22.9,10.2,47c0,24.1-3.4,39.8-10.2,47
			c-6.8,7.2-21.7,10.8-44.5,10.8c-22.8,0-37.6-3.6-44.4-10.8c-6.8-7.2-10.2-22.9-10.2-47c0-24.1,3.4-39.8,10.2-47
			C1004.7,370.2,1019.5,366.6,1042.3,366.6z M1042.3,380.2c-16,0-26,2.4-29.8,7.1c-3.8,4.7-5.8,17.1-5.8,37c0,20,1.9,32.3,5.8,37
			c3.8,4.7,13.8,7.1,29.8,7.1c16.1,0,26.1-2.4,30-7.1c3.8-4.7,5.8-17.1,5.8-37c0-20-1.9-32.3-5.8-37
			C1068.4,382.6,1058.4,380.2,1042.3,380.2z"/>
		<path d="M1190.9,368.2v13.6h-47.6v68.7c0,12,5.9,18,17.6,18c11.6,0,17.5-5.4,17.5-16.1l0.1-5.5l0.3-6.2h16.8l0.1,8.3
			c0,22.1-11.6,33.1-34.7,33.1c-23.9,0-35.9-9.2-35.9-27.6v-4v-68.7H1108v-13.6h17.1v-27h18.1v27H1190.9z"/>
		<path d="M1297.7,446.5h18.5l0.1,4.1c0,11.7-3.9,19.8-11.7,24.5c-7.8,4.7-21.5,7-41.1,7c-22.8,0-37.7-3.8-44.9-11.3
			c-7.1-7.6-10.7-23.4-10.7-47.6c0-22.4,3.6-37.4,10.7-45.1c7.2-7.7,21.2-11.5,42.1-11.5c22.8,0,37.7,3.3,44.8,10
			c7.1,6.7,10.6,20.7,10.6,42v8.8h-89.1c0,17.7,2.1,29,6.3,33.8c4.2,4.9,14,7.3,29.3,7.3c14.6,0,24.1-1.1,28.4-3.5
			c4.4-2.3,6.5-7.3,6.5-15V446.5z M1297.7,414.6l-0.1-5.3c0-12.1-2.2-20-6.6-23.7c-4.4-3.6-13.9-5.5-28.5-5.5
			c-14.7,0-24.2,2.1-28.5,6.4c-4.4,4.3-6.5,13.6-6.5,28H1297.7z"/>
		<path d="M1362.9,320.2v93.1h8.3l43.8-45.1h22.8l-52.9,51.5l62.5,60.7h-24.5l-52.6-54.4h-7.4v54.4h-18.1V320.2H1362.9z"/>
		<path d="M1535.9,446.5h18.5l0.1,4.1c0,11.7-3.9,19.8-11.7,24.5c-7.8,4.7-21.5,7-41.1,7c-22.8,0-37.7-3.8-44.9-11.3
			c-7.1-7.6-10.7-23.4-10.7-47.6c0-22.4,3.6-37.4,10.7-45.1c7.2-7.7,21.2-11.5,42.1-11.5c22.8,0,37.7,3.3,44.8,10
			c7.1,6.7,10.6,20.7,10.6,42v8.8h-89.1c0,17.7,2.1,29,6.3,33.8c4.2,4.9,14,7.3,29.3,7.3c14.6,0,24.1-1.1,28.4-3.5
			c4.4-2.3,6.5-7.3,6.5-15V446.5z M1535.9,414.6l-0.1-5.3c0-12.1-2.2-20-6.6-23.7c-4.4-3.6-13.9-5.5-28.5-5.5
			c-14.7,0-24.2,2.1-28.5,6.4c-4.4,4.3-6.5,13.6-6.5,28H1535.9z"/>
		<path d="M1573.3,368.2h18.1l-1.8,12.9l0.4,0.4c7.2-10.6,19-15.9,35.5-15.9c22.8,0,34.2,10.6,34.2,31.9l-0.1,7.8h-17.9l0.4-2.8
			c0.3-3,0.4-5,0.4-6c0-11.5-6.9-17.3-20.7-17.3c-20.2,0-30.3,11.3-30.3,33.9v67.3h-18.1V368.2z"/>
		<path d="M1672.5,368.2h17.5l-0.5,15.3l0.5,0.3c5.5-11.5,19.2-17.3,41.2-17.3c17.7,0,29.7,2.8,35.9,8.5c6.3,5.6,9.4,16.4,9.4,32.4
			v73h-18.1v-71.6v-4.2c0-9.6-2-16.1-6.1-19.4c-4.1-3.3-11.9-5-23.4-5c-25.5,0-38.2,10.9-38.2,32.8v67.5h-18.1V368.2z"/>
		<path d="M1883.8,446.5h18.5l0.1,4.1c0,11.7-3.9,19.8-11.7,24.5c-7.8,4.7-21.5,7-41.1,7c-22.8,0-37.7-3.8-44.9-11.3
			c-7.1-7.6-10.7-23.4-10.7-47.6c0-22.4,3.6-37.4,10.7-45.1c7.2-7.7,21.2-11.5,42.1-11.5c22.8,0,37.7,3.3,44.8,10
			c7.1,6.7,10.6,20.7,10.6,42v8.8h-89.1c0,17.7,2.1,29,6.3,33.8c4.2,4.9,14,7.3,29.3,7.3c14.6,0,24.1-1.1,28.4-3.5
			c4.4-2.3,6.5-7.3,6.5-15V446.5z M1883.8,414.6l-0.1-5.3c0-12.1-2.2-20-6.6-23.7c-4.4-3.6-13.9-5.5-28.5-5.5
			c-14.7,0-24.2,2.1-28.5,6.4c-4.4,4.3-6.5,13.6-6.5,28H1883.8z"/>
	</g>
	<g>
		<g>
			<defs>
				<rect id="SVGID_1_" x="42" y="51.4" width="422.8" height="600"/>
			</defs>
			<clipPath id="SVGID_2_">
				<use xlink:href="#SVGID_1_"  overflow="visible"/>
			</clipPath>
			<g clip-path="url(#SVGID_2_)">
				<defs>
					<rect id="SVGID_3_" x="42" y="51.4" width="422.8" height="600"/>
				</defs>
				<clipPath id="SVGID_4_">
					<use xlink:href="#SVGID_3_"  overflow="visible"/>
				</clipPath>
				<path clip-path="url(#SVGID_4_)" fill-rule="evenodd" clip-rule="evenodd" fill="#EC2127" d="M54.9,91.3h129.3v130.1H54.5v-129
					C54.5,91.9,54.5,91.4,54.9,91.3 M72.9,110.9V203h93v-93.3H73.3C72.8,109.8,72.8,110.3,72.9,110.9"/>
				<path clip-path="url(#SVGID_4_)" fill-rule="evenodd" clip-rule="evenodd" fill="#EC2127" d="M314.7,91.3h129.7v130.1H314.3
					v-129C314.3,91.9,314.2,91.4,314.7,91.3 M332.7,110.9V203h93v-93.3h-92.6C332.6,109.8,332.6,110.3,332.7,110.9"/>
				<path clip-path="url(#SVGID_4_)" fill-rule="evenodd" clip-rule="evenodd" fill="#EC2127" d="M92,128.5h55.1v55.7H91.6v-54.5
					C91.6,129.2,91.6,128.6,92,128.5"/>
				<path clip-path="url(#SVGID_4_)" fill-rule="evenodd" clip-rule="evenodd" fill="#EC2127" d="M351.8,128.5h55.1v55.7h-55.5
					v-54.5C351.4,129.2,351.4,128.6,351.8,128.5"/>
				<path clip-path="url(#SVGID_4_)" fill-rule="evenodd" clip-rule="evenodd" fill="#EC2127" d="M91.6,240.2v18.4H54.5
					c0.3-6-0.5-13.1,0.4-18.4H91.6z"/>
				<path clip-path="url(#SVGID_4_)" fill-rule="evenodd" clip-rule="evenodd" fill="#EC2127" d="M54.9,352h129.3v130.5H54.5V353.1
					C54.5,352.6,54.5,352,54.9,352 M72.9,371.6v92.1h93v-93.3H73.3C72.8,370.5,72.8,371,72.9,371.6"/>
				<path clip-path="url(#SVGID_4_)" fill-rule="evenodd" clip-rule="evenodd" fill="#EC2127" d="M444.4,370.4v37.2h-37.5v-18.4
					h18.4c1.2-5.4-0.4-13.5,0.8-18.8H444.4z"/>
				<path clip-path="url(#SVGID_4_)" fill-rule="evenodd" clip-rule="evenodd" fill="#EC2127" d="M92,389.2h55.1v55.7H91.6v-54.5
					C91.6,389.8,91.6,389.3,92,389.2"/>
				<path clip-path="url(#SVGID_4_)" fill-rule="evenodd" clip-rule="evenodd" fill="#EC2127" d="M203,221.4V203h18.4v18.4h18.8
					v-55.7h-18.4c-0.9,5.4-0.1,12.4-0.4,18.4H203V147h18c0.9-17.8,0.1-37.2,0.4-55.7h74.2v18.4h-18c-0.9,5.5-0.1,12.7-0.4,18.8
					h-18.8v-18.4c-5.2-0.9-12.1-0.1-18-0.4c-0.9,11.6-0.1,25-0.4,37.2h37.1v18.8h18.4v111.7h-18.4v18.4h-18.8v-18.4h18.4
					c0.9-11.6,0.1-25,0.4-37.2h-36.7c-0.9,5.4-0.1,12.4-0.4,18.4h-18.8v18.8h18.4c0.9-5.5,0.1-12.7,0.4-18.8h18.4v18.8h-18
					c-0.9,5.4-0.1,12.4-0.4,18.4h-36.7c-0.9,5.5-0.1,12.7-0.4,18.8h37.1v18c5.3,0.9,12.4,0.1,18.4,0.4V352h-18
					c-0.9,5.4-0.1,12.4-0.4,18.4h37.1v-37.2h18c0.9-17.8,0.1-37.2,0.4-55.7h18.8v55.7h-18.8v37.2h-18.4v18.8h-18.8v18.4h-18.4v18.8
					h18.4v36.8c5.3,0.9,12.4,0.1,18.4,0.4c0.9-11.6,0.1-25,0.4-37.2h18.4v-18.8h18.8V352h18.4v36.8c11.6,0.9,24.9,0.1,37.1,0.4v18.4
					h18.8v36.8c5.3,0.9,12.4,0.1,18.4,0.4v-18.4h37.5v18.4h-37.5v18.8h18.8v18.8h-18.8v-18.8h-36.7c-0.9,5.5-0.1,12.7-0.4,18.8
					h-55.5v-18.8h55.5v-18.8h-18.4v-37.2h-18.8v18.8h-18.4v37.2h-18.8v18.8h-55.5v-37.2c-5.5-0.9-12.6-0.1-18.8-0.4v37.6H203v-37.6
					h18c0.9-17.6,0.1-37,0.4-55.3c-5.3-0.9-12.4-0.1-18.4-0.4v-55.7c-11.6-0.9-24.9-0.1-37.1-0.4v-18.4h18.4v-18.4
					c-5.3-0.9-12.4-0.1-18.4-0.4v-18.4h36.7c0.9-5.4,0.1-12.4,0.4-18.4c-17.8-0.9-37.4-0.1-55.9-0.4v-18.4H203v18
					c5.3,0.9,12.4,0.1,18.4,0.4v-36.5C216.8,220.4,208.8,221.9,203,221.4 M258.8,184.2c-0.9,11.6-0.1,25-0.4,37.2h18.8v-37.2H258.8z
					"/>
				<path clip-path="url(#SVGID_4_)" fill-rule="evenodd" clip-rule="evenodd" fill="#EC2127" d="M407.3,370.4
					c-0.9,5.5-0.1,12.7-0.4,18.8h-18.4v-18.8h18.4V352h-18c-0.9,5.4-0.1,12.4-0.4,18.4h-18.8V352h-18.4v-18.8h-18.8v-18.4h18.8
					v-18.8h18c0.9-11.5,0.1-24.7,0.4-36.8c-5.3-0.9-12.4-0.1-18.4-0.4v-18.4h37.1v18c11.6,0.9,24.9,0.1,37.1,0.4v37.2h18.8V352H426
					c-0.9,5.4-0.1,12.4-0.4,18.4H407.3z M388.5,295.9h18.4v-18.4h-18.4V295.9z M369.8,333.1h55.9v-18.4h-55.5
					C369.3,320.1,370,327.1,369.8,333.1"/>
				<path clip-path="url(#SVGID_4_)" fill-rule="evenodd" clip-rule="evenodd" fill="#EC2127" d="M91.6,295.9h36.7
					c0.9-5.4,0.1-12.4,0.4-18.4h18.4v37.2H92c-0.9,5.4-0.1,12.4-0.4,18.4H54.5v-55.7h37.1V295.9H72.9v18.4c5.3,0.7,13.4,0.7,18.8,0
					V295.9z"/>
			</g>
		</g>
	</g>
</g>
</svg>
