<svg xmlns="http://www.w3.org/2000/svg" xmlns:xlink="http://www.w3.org/1999/xlink" version="1.1" x="0px" y="0px" viewBox="17 339 579 126" enable-background="new 17 339 579 126" xml:space="preserve"><g><g><path d="M223.2 341.7v49.9H217v-23.2h-32.2v23.2h-6.2v-49.9h6.2v22H217v-22H223.2z"/><path d="M238.7 356.6v38.2v1.5c0 5.8-2.6 8.7-7.9 8.7c-0.8 0-1.7-0.1-2.7-0.2v-3.6c0.3-0.1 0.5-0.1 0.7-0.1l0.7 0l2.3-0.7 c0.9-0.7 1.3-2.5 1.3-5.5v-38.2H238.7z M238.7 341.7v5.8H233v-5.8H238.7z"/><path d="M246.2 392.8v-4.7l2.8-2.4c-0.9-2.4-1.3-6.2-1.3-11.5c0-7.6 1.1-12.5 3.2-14.7c2.1-2.2 6.8-3.3 14.1-3.3 c7.1 0 11.7 1.2 13.8 3.6l4.5-4v4.7l-2.7 2.4c0.9 2.3 1.3 5.9 1.3 10.6c0 7.6-1 12.6-3.1 15c-2.1 2.4-6.4 3.6-13 3.6 c-7.5 0-12.4-1.1-14.7-3.4L246.2 392.8z M274.6 363.4c-1.2-2-4.2-3-9-3c-5.5 0-8.9 0.7-10.1 2.1c-1.2 1.4-1.9 5.3-1.9 11.7 c0 2.7 0.1 5.1 0.3 7.2L274.6 363.4z M255 385.1c1.2 1.9 4.1 2.8 8.8 2.8c5.6 0 9-0.7 10.2-2.2c1.2-1.5 1.9-5.5 1.9-12.1 c0-2.1-0.1-4.2-0.3-6.4L255 385.1z"/><path d="M291.1 356.6h5.6l-0.6 4l0.1 0.1c2.2-3.3 5.9-5 11.1-5c7.1 0 10.7 3.3 10.7 9.9l0 2.4h-5.6l0.1-0.9 c0.1-0.9 0.1-1.6 0.1-1.9c0-3.6-2.1-5.4-6.4-5.4c-6.3 0-9.4 3.5-9.4 10.6v21h-5.6L291.1 356.6L291.1 356.6z"/><path d="M324.1 356.6h5.6l-0.6 4l0.1 0.1c2.2-3.3 5.9-5 11.1-5c7.1 0 10.7 3.3 10.7 9.9l0 2.4h-5.6l0.1-0.9 c0.1-0.9 0.1-1.6 0.1-1.9c0-3.6-2.1-5.4-6.4-5.4c-6.3 0-9.4 3.5-9.4 10.6v21h-5.6L324.1 356.6L324.1 356.6z"/><path d="M362.1 341.7v5.8h-5.6v-5.8H362.1z M362.1 356.6v35h-5.6v-35H362.1z"/><path d="M371.9 356.6h5.5l-0.2 4.8l0.2 0.1c1.7-3.6 6-5.4 12.8-5.4c5.5 0 9.3 0.9 11.2 2.6c2 1.7 2.9 5.1 2.9 10.1v22.7h-5.6 v-22.3V368c0-3-0.6-5-1.9-6s-3.7-1.6-7.3-1.6c-7.9 0-11.9 3.4-11.9 10.2v21H372L371.9 356.6L371.9 356.6z"/><path d="M443.2 356.6v37.2c0 5.1-1.2 8.6-3.6 10.5c-2.4 1.9-6.9 2.9-13.3 2.9c-5.8 0-9.7-0.8-11.8-2.4c-2.1-1.6-3.1-4.6-3.1-9h5.5 c0 3 0.6 5 1.8 5.9c1.2 0.9 3.9 1.3 8 1.3c4.3 0 7.2-0.6 8.7-1.7c1.5-1.2 2.2-3.5 2.2-6.9v-7l-0.1 0c-1.5 3.2-5.6 4.9-12.6 4.9 c-5.7 0-9.6-1.3-11.8-3.8c-2.1-2.6-3.2-7.2-3.2-14c0-7 1.1-11.8 3.3-14.4s6.3-3.9 12.2-3.9c6.3 0 10.4 1.7 12.4 5.3l0.1 0 l-0.3-4.7C437.5 356.6 443.2 356.6 443.2 356.6z M426.4 360.4c-4.4 0-7.3 0.8-8.6 2.6c-1.3 1.7-2 5.4-2 11.2c0 5.8 0.7 9.5 2 11.2 c1.3 1.7 4.2 2.6 8.6 2.6c4.5 0 7.4-0.9 8.9-2.8c1.4-1.9 2.1-5.8 2.1-11.8c0-5.3-0.7-8.7-2.1-10.4 C433.8 361.2 430.9 360.4 426.4 360.4z"/><path d="M178.6 463.2v-49.9H203c6.8 0 11.2 0.8 13.2 2.5c2.1 1.7 3.1 5.2 3.1 10.7c0 5.5-2.4 9-7.1 10.5v0.1 c5.8 1.3 8.8 5.2 8.8 11.7c0 5.3-1.2 9-3.5 11.2c-2.3 2.1-6.3 3.2-12 3.2H178.6z M184.8 435.2h16.3c5.2 0 8.5-0.6 10-1.7 c1.5-1.1 2.2-3.6 2.2-7.5c0-3.4-0.7-5.5-2-6.5c-1.3-1-4.2-1.5-8.6-1.5h-18L184.8 435.2L184.8 435.2z M184.8 458.4H198l5.6 0 c4.7 0 7.8-0.6 9.3-1.7c1.5-1.1 2.2-3.5 2.2-7c0-4.5-0.7-7.2-2.2-8.2c-1.5-1-5.5-1.5-12.1-1.5h-16L184.8 458.4L184.8 458.4z"/><path d="M232.8 413.2v5.7h-5.6v-5.7H232.8z M232.8 428.2v35h-5.6v-35H232.8z"/><path d="M240.5 463.2v-49.9h5.6v19.4l0.1 0.1c1.3-3.4 5.5-5.1 12.7-5.1c5.6 0 9.5 1.3 11.7 4c2.1 2.6 3.2 7.5 3.2 14.5 c0 6.6-1.1 11.2-3.4 13.7c-2.3 2.6-6.4 3.8-12.3 3.8c-6 0-10.1-1.6-12.1-4.9l-0.2 0l0.3 4.3L240.5 463.2L240.5 463.2z M257.5 431.9c-4.4 0-7.4 0.9-8.9 2.6c-1.5 1.7-2.3 5.1-2.3 10.3c0 6.3 0.7 10.3 2 12.1c1.4 1.7 4.5 2.6 9.4 2.6 c4.1 0 6.9-0.9 8.2-2.6c1.3-1.8 2-5.4 2-10.9c0-5.8-0.7-9.6-2-11.3C264.7 432.8 261.8 431.9 257.5 431.9z"/><path d="M285.5 413.2v49.9h-5.6v-49.9H285.5z"/><path d="M301.1 413.2v5.7h-5.6v-5.7H301.1z M301.1 428.2v35h-5.6v-35H301.1z"/><path d="M324.8 427.7c7.1 0 11.7 1.1 13.9 3.4c2.1 2.2 3.2 7.1 3.2 14.6c0 7.5-1.1 12.4-3.2 14.6c-2.1 2.2-6.8 3.4-13.9 3.4 c-7.1 0-11.7-1.1-13.8-3.4c-2.1-2.2-3.2-7.1-3.2-14.6c0-7.5 1.1-12.4 3.2-14.6C313 428.8 317.7 427.7 324.8 427.7z M324.8 431.9 c-5 0-8.1 0.7-9.3 2.2s-1.8 5.3-1.8 11.5c0 6.2 0.6 10.1 1.8 11.5c1.2 1.5 4.3 2.2 9.3 2.2c5 0 8.1-0.7 9.3-2.2 c1.2-1.5 1.8-5.3 1.8-11.5c0-6.2-0.6-10.1-1.8-11.5S329.8 431.9 324.8 431.9z"/><path d="M371.1 428.2v4.2h-14.8v21.4c0 3.7 1.8 5.6 5.5 5.6c3.6 0 5.5-1.7 5.5-5l0-1.7l0.1-1.9h5.2l0 2.6 c0 6.9-3.6 10.3-10.8 10.3c-7.4 0-11.2-2.9-11.2-8.6v-1.2v-21.4h-5.3v-4.2h5.3v-8.4h5.6v8.4C356.2 428.2 371.1 428.2 371.1 428.2z "/><path d="M404.3 452.6h5.8l0 1.3c0 3.6-1.2 6.2-3.6 7.6s-6.7 2.2-12.8 2.2c-7.1 0-11.7-1.2-14-3.5c-2.2-2.4-3.3-7.3-3.3-14.8 c0-7 1.1-11.7 3.3-14.1c2.2-2.4 6.6-3.6 13.1-3.6c7.1 0 11.7 1 14 3.1c2.2 2.1 3.3 6.4 3.3 13.1v2.7h-27.8c0 5.5 0.7 9 2 10.5 c1.3 1.5 4.4 2.3 9.1 2.3c4.5 0 7.5-0.3 8.8-1.1c1.4-0.7 2-2.3 2-4.7L404.3 452.6L404.3 452.6z M404.3 442.7l0-1.7 c0-3.8-0.7-6.2-2.1-7.4c-1.4-1.1-4.3-1.7-8.9-1.7c-4.6 0-7.5 0.7-8.9 2c-1.4 1.3-2 4.2-2 8.7L404.3 442.7L404.3 442.7z"/><path d="M424.6 413.2v29h2.6l13.6-14.1h7.1l-16.5 16l19.5 18.9h-7.6L427 446.2h-2.3v16.9H419v-49.9H424.6z"/><path d="M478.6 452.6h5.8l0 1.3c0 3.6-1.2 6.2-3.6 7.6s-6.7 2.2-12.8 2.2c-7.1 0-11.7-1.2-14-3.5c-2.2-2.4-3.3-7.3-3.3-14.8 c0-7 1.1-11.7 3.3-14.1c2.2-2.4 6.6-3.6 13.1-3.6c7.1 0 11.7 1 14 3.1c2.2 2.1 3.3 6.4 3.3 13.1v2.7h-27.8c0 5.5 0.7 9 2 10.5 c1.3 1.5 4.4 2.3 9.1 2.3c4.5 0 7.5-0.3 8.8-1.1c1.4-0.7 2-2.3 2-4.7L478.6 452.6L478.6 452.6z M478.6 442.7l0-1.7 c0-3.8-0.7-6.2-2.1-7.4c-1.4-1.1-4.3-1.7-8.9-1.7c-4.6 0-7.5 0.7-8.9 2c-1.4 1.3-2 4.2-2 8.7L478.6 442.7L478.6 442.7z"/><path d="M490.2 428.2h5.6l-0.6 4l0.1 0.1c2.2-3.3 5.9-5 11.1-5c7.1 0 10.7 3.3 10.7 9.9l0 2.4h-5.6l0.1-0.9 c0.1-0.9 0.1-1.6 0.1-1.9c0-3.6-2.1-5.4-6.4-5.4c-6.3 0-9.4 3.5-9.4 10.6v21h-5.6L490.2 428.2L490.2 428.2z"/><path d="M521.1 428.2h5.5l-0.2 4.8l0.2 0.1c1.7-3.6 6-5.4 12.8-5.4c5.5 0 9.3 0.9 11.2 2.6c2 1.7 2.9 5.1 2.9 10.1v22.7h-5.6 v-22.3v-1.3c0-3-0.6-5-1.9-6s-3.7-1.6-7.3-1.6c-7.9 0-11.9 3.4-11.9 10.2v21h-5.6L521.1 428.2L521.1 428.2z"/><path d="M586.9 452.6h5.8l0 1.3c0 3.6-1.2 6.2-3.6 7.6c-2.4 1.5-6.7 2.2-12.8 2.2c-7.1 0-11.7-1.2-14-3.5 c-2.2-2.4-3.3-7.3-3.3-14.8c0-7 1.1-11.7 3.3-14.1c2.2-2.4 6.6-3.6 13.1-3.6c7.1 0 11.7 1 14 3.1c2.2 2.1 3.3 6.4 3.3 13.1v2.7 h-27.8c0 5.5 0.7 9 2 10.5c1.3 1.5 4.4 2.3 9.1 2.3c4.5 0 7.5-0.3 8.8-1.1c1.4-0.7 2-2.3 2-4.7L586.9 452.6L586.9 452.6z M586.9 442.7l0-1.7c0-3.8-0.7-6.2-2.1-7.4c-1.4-1.1-4.3-1.7-8.9-1.7c-4.6 0-7.5 0.7-8.9 2c-1.4 1.3-2 4.2-2 8.7L586.9 442.7 L586.9 442.7z"/></g><g display="none"><g display="inline"><g><defs><rect x="13.1" y="329.5" width="131.7" height="186.9"/></defs><clipPath><use xlink:href="#SVGID_1_" display="none" overflow="visible"/></clipPath><g clip-path="url(#SVGID_2_)"><g><defs><rect x="13.1" y="329.5" width="131.7" height="186.9"/></defs><defs><rect x="13.1" y="329.5" width="131.7" height="186.9"/></defs><defs><rect x="13.1" y="329.5" width="131.7" height="186.9"/></defs><defs><rect x="13.1" y="329.5" width="131.7" height="186.9"/></defs><defs><rect x="13.1" y="329.5" width="131.7" height="186.9"/></defs><defs><rect x="13.1" y="329.5" width="131.7" height="186.9"/></defs><defs><rect x="13.1" y="329.5" width="131.7" height="186.9"/></defs><defs><rect x="13.1" y="329.5" width="131.7" height="186.9"/></defs><defs><rect x="13.1" y="329.5" width="131.7" height="186.9"/></defs><defs><rect x="13.1" y="329.5" width="131.7" height="186.9"/></defs><defs><rect x="13.1" y="329.5" width="131.7" height="186.9"/></defs><clipPath><use xlink:href="#SVGID_3_" display="none" overflow="visible"/></clipPath><clipPath clip-path="url(#SVGID_14_)"><use xlink:href="#SVGID_4_" display="none" overflow="visible"/></clipPath><clipPath clip-path="url(#SVGID_15_)"><use xlink:href="#SVGID_5_" display="none" overflow="visible"/></clipPath><clipPath clip-path="url(#SVGID_16_)"><use xlink:href="#SVGID_6_" display="none" overflow="visible"/></clipPath><clipPath clip-path="url(#SVGID_17_)"><use xlink:href="#SVGID_7_" display="none" overflow="visible"/></clipPath><clipPath clip-path="url(#SVGID_18_)"><use xlink:href="#SVGID_8_" display="none" overflow="visible"/></clipPath><clipPath clip-path="url(#SVGID_19_)"><use xlink:href="#SVGID_9_" display="none" overflow="visible"/></clipPath><clipPath clip-path="url(#SVGID_20_)"><use xlink:href="#SVGID_10_" display="none" overflow="visible"/></clipPath><clipPath clip-path="url(#SVGID_21_)"><use xlink:href="#SVGID_11_" display="none" overflow="visible"/></clipPath><clipPath clip-path="url(#SVGID_22_)"><use xlink:href="#SVGID_12_" display="none" overflow="visible"/></clipPath><clipPath clip-path="url(#SVGID_23_)"><use xlink:href="#SVGID_13_" display="none" overflow="visible"/></clipPath><path clip-path="url(#SVGID_24_)" fill="#EC2127" d="M17.1 341.9h40.3v40.5H17v-40.2C17 342.1 17 342 17.1 341.9 M22.7 348 v28.7h29v-29.1H22.8C22.7 347.7 22.7 347.8 22.7 348"/><path clip-path="url(#SVGID_24_)" fill="#EC2127" d="M98.1 341.9h40.4v40.5H97.9v-40.2C97.9 342.1 97.9 342 98.1 341.9 M103.7 348v28.7h29v-29.1h-28.9C103.6 347.7 103.6 347.8 103.7 348"/><path clip-path="url(#SVGID_24_)" fill="#EC2127" d="M28.7 353.5h17.2v17.4H28.5v-17C28.5 353.7 28.5 353.5 28.7 353.5"/><path clip-path="url(#SVGID_24_)" fill="#EC2127" d="M109.6 353.5h17.2v17.4h-17.3v-17C109.5 353.7 109.5 353.5 109.6 353.5"/><path clip-path="url(#SVGID_24_)" fill="#EC2127" d="M28.5 388.3v5.7H17c0.1-1.9-0.2-4.1 0.1-5.7 C17.1 388.3 28.5 388.3 28.5 388.3z"/><path clip-path="url(#SVGID_24_)" fill="#EC2127" d="M17.1 423.2h40.3v40.7H17v-40.3C17 423.3 17 423.2 17.1 423.2 M22.7 429.3V458h29v-29.1H22.8C22.7 428.9 22.7 429.1 22.7 429.3"/><path clip-path="url(#SVGID_24_)" fill="#EC2127" d="M138.5 428.9v11.6h-11.7v-5.7h5.7c0.4-1.7-0.1-4.2 0.2-5.9 C132.8 428.9 138.5 428.9 138.5 428.9z"/><path clip-path="url(#SVGID_24_)" fill="#EC2127" d="M28.7 434.7h17.2v17.4H28.5v-17C28.5 434.9 28.5 434.8 28.7 434.7"/><path clip-path="url(#SVGID_24_)" fill="#EC2127" d="M63.3 382.5v-5.7H69v5.7h5.9v-17.4h-5.7c-0.3 1.7 0 3.9-0.1 5.7h-5.7 v-11.6h5.6c0.3-5.5 0-11.6 0.1-17.4h23.1v5.7h-5.6c-0.3 1.7 0 4-0.1 5.9h-5.9v-5.7c-1.6-0.3-3.8 0-5.6-0.1 c-0.3 3.6 0 7.8-0.1 11.6h11.6v5.9h5.7v34.8h-5.7v5.7h-5.9v-5.7h5.7c0.3-3.6 0-7.8 0.1-11.6H74.9c-0.3 1.7 0 3.9-0.1 5.7h-5.9 v5.9h5.7c0.3-1.7 0-4 0.1-5.9h5.7v5.9h-5.6c-0.3 1.7 0 3.9-0.1 5.7H63.3c-0.3 1.7 0 4-0.1 5.9h11.6v5.6c1.7 0.3 3.9 0 5.7 0.1 v5.9h-5.6c-0.3 1.7 0 3.9-0.1 5.7h11.6v-11.6h5.6c0.3-5.5 0-11.6 0.1-17.4h5.9v17.4h-5.9v11.6h-5.7v5.9h-5.9v5.7h-5.7v5.9h5.7 v11.5c1.7 0.3 3.9 0 5.7 0.1c0.3-3.6 0-7.8 0.1-11.6h5.7v-5.9h5.9v-17.3h5.7v11.5c3.6 0.3 7.8 0 11.6 0.1v5.7h5.9v11.5 c1.7 0.3 3.9 0 5.7 0.1v-5.7h11.7v5.7h-11.7v5.9h5.9v5.9h-5.9v-5.9h-11.4c-0.3 1.7 0 4-0.1 5.9H98v-5.9h17.3v-5.9h-5.7v-11.6 h-5.9v5.9h-5.7v11.6h-5.9v5.9H74.8v-11.6c-1.7-0.3-3.9 0-5.9-0.1v11.7h-5.7v-11.7h5.6c0.3-5.5 0-11.5 0.1-17.2 c-1.7-0.3-3.9 0-5.7-0.1v-17.4c-3.6-0.3-7.8 0-11.6-0.1v-5.7h5.7v-5.7c-1.7-0.3-3.9 0-5.7-0.1v-5.7h11.4 c0.3-1.7 0-3.9 0.1-5.7c-5.5-0.3-11.7 0-17.4-0.1v-5.7h17.4v5.6c1.7 0.3 3.9 0 5.7 0.1v-11.4 C67.5 382.2 65.1 382.6 63.3 382.5 M80.6 370.9c-0.3 3.6 0 7.8-0.1 11.6h5.9v-11.6H80.6z"/><path clip-path="url(#SVGID_24_)" fill="#EC2127" d="M126.9 428.9c-0.3 1.7 0 4-0.1 5.9H121v-5.9h5.7v-5.7h-5.6 c-0.3 1.7 0 3.9-0.1 5.7h-5.9v-5.7h-5.7v-5.9h-5.9v-5.7h5.9v-5.9h5.6c0.3-3.6 0-7.7 0.1-11.5c-1.7-0.3-3.9 0-5.7-0.1v-5.7H121 v5.6c3.6 0.3 7.8 0 11.6 0.1v11.6h5.9v17.4h-5.7c-0.3 1.7 0 3.9-0.1 5.7H126.9z M121 405.7h5.7v-5.7H121V405.7z M115.2 417.3 h17.4v-5.7h-17.3C115.1 413.2 115.3 415.4 115.2 417.3"/><path clip-path="url(#SVGID_24_)" fill="#EC2127" d="M28.5 405.7H40c0.3-1.7 0-3.9 0.1-5.7h5.7v11.6H28.7 c-0.3 1.7 0 3.9-0.1 5.7H17v-17.4h11.6V405.7h-5.8v5.7c1.7 0.2 4.2 0.2 5.9 0L28.5 405.7L28.5 405.7z"/></g></g></g></g></g><path fill="#EC2127" d="M17.1 341.9h40.3v40.5H17v-40.2C17 342.1 17 342 17.1 341.9 M22.7 348v28.7h29v-29.1H22.8 C22.7 347.7 22.7 347.8 22.7 348"/><path fill="#EC2127" d="M98.1 341.9h40.4v40.5H97.9v-40.2C97.9 342.1 97.9 342 98.1 341.9 M103.7 348v28.7h29v-29.1h-28.9 C103.6 347.7 103.6 347.8 103.7 348"/><path fill="#EC2127" d="M28.7 353.5h17.2v17.4H28.5v-17C28.5 353.7 28.5 353.5 28.7 353.5"/><path fill="#EC2127" d="M109.6 353.5h17.2v17.4h-17.3v-17C109.5 353.7 109.5 353.5 109.6 353.5"/><path fill="#EC2127" d="M28.5 388.3v5.7H17c0.1-1.9-0.2-4.1 0.1-5.7C17.1 388.3 28.5 388.3 28.5 388.3z"/><path fill="#EC2127" d="M17.1 423.2h40.3v40.7H17v-40.3C17 423.3 17 423.2 17.1 423.2 M22.7 429.3V458h29v-29.1H22.8 C22.7 428.9 22.7 429.1 22.7 429.3"/><path fill="#EC2127" d="M138.5 428.9v11.6h-11.7v-5.7h5.7c0.4-1.7-0.1-4.2 0.2-5.9C132.8 428.9 138.5 428.9 138.5 428.9z"/><path fill="#EC2127" d="M28.7 434.7h17.2v17.4H28.5v-17C28.5 434.9 28.5 434.8 28.7 434.7"/><path fill="#EC2127" d="M63.3 382.5v-5.7H69v5.7h5.9v-17.4h-5.7c-0.3 1.7 0 3.9-0.1 5.7h-5.7v-11.6h5.6c0.3-5.5 0-11.6 0.1-17.4 h23.1v5.7h-5.6c-0.3 1.7 0 4-0.1 5.9h-5.9v-5.7c-1.6-0.3-3.8 0-5.6-0.1c-0.3 3.6 0 7.8-0.1 11.6h11.6v5.9h5.7v34.8h-5.7v5.7h-5.9 v-5.7h5.7c0.3-3.6 0-7.8 0.1-11.6H74.9c-0.3 1.7 0 3.9-0.1 5.7h-5.9v5.9h5.7c0.3-1.7 0-4 0.1-5.9h5.7v5.9h-5.6 c-0.3 1.7 0 3.9-0.1 5.7H63.3c-0.3 1.7 0 4-0.1 5.9h11.6v5.6c1.7 0.3 3.9 0 5.7 0.1v5.9h-5.6c-0.3 1.7 0 3.9-0.1 5.7h11.6v-11.6 h5.6c0.3-5.5 0-11.6 0.1-17.4h5.9v17.4h-5.9v11.6h-5.7v5.9h-5.9v5.7h-5.7v5.9h5.7v11.5c1.7 0.3 3.9 0 5.7 0.1 c0.3-3.6 0-7.8 0.1-11.6h5.7v-5.9h5.9v-17.3h5.7v11.5c3.6 0.3 7.8 0 11.6 0.1v5.7h5.9v11.5c1.7 0.3 3.9 0 5.7 0.1v-5.7h11.7v5.7 h-11.7v5.9h5.9v5.9h-5.9v-5.9h-11.4c-0.3 1.7 0 4-0.1 5.9H98v-5.9h17.3v-5.9h-5.7v-11.6h-5.9v5.9h-5.7v11.6h-5.9v5.9H74.8v-11.6 c-1.7-0.3-3.9 0-5.9-0.1v11.7h-5.7v-11.7h5.6c0.3-5.5 0-11.5 0.1-17.2c-1.7-0.3-3.9 0-5.7-0.1v-17.4c-3.6-0.3-7.8 0-11.6-0.1v-5.7 h5.7v-5.7c-1.7-0.3-3.9 0-5.7-0.1v-5.7h11.4c0.3-1.7 0-3.9 0.1-5.7c-5.5-0.3-11.7 0-17.4-0.1v-5.7h17.4v5.6c1.7 0.3 3.9 0 5.7 0.1 v-11.4C67.5 382.2 65.1 382.6 63.3 382.5 M80.6 370.9c-0.3 3.6 0 7.8-0.1 11.6h5.9v-11.6H80.6z"/><path fill="#EC2127" d="M126.9 428.9c-0.3 1.7 0 4-0.1 5.9H121v-5.9h5.7v-5.7h-5.6c-0.3 1.7 0 3.9-0.1 5.7h-5.9v-5.7h-5.7v-5.9 h-5.9v-5.7h5.9v-5.9h5.6c0.3-3.6 0-7.7 0.1-11.5c-1.7-0.3-3.9 0-5.7-0.1v-5.7H121v5.6c3.6 0.3 7.8 0 11.6 0.1v11.6h5.9v17.4h-5.7 c-0.3 1.7 0 3.9-0.1 5.7H126.9z M121 405.7h5.7v-5.7H121V405.7z M115.2 417.3h17.4v-5.7h-17.3C115.1 413.2 115.3 415.4 115.2 417.3 "/><path fill="#EC2127" d="M28.5 405.7H40c0.3-1.7 0-3.9 0.1-5.7h5.7v11.6H28.7c-0.3 1.7 0 3.9-0.1 5.7H17v-17.4h11.6V405.7h-5.8v5.7 c1.7 0.2 4.2 0.2 5.9 0L28.5 405.7L28.5 405.7z"/></g></svg>